<svg xmlns="http://www.w3.org/2000/svg" viewBox="0 0 1200 900"><defs><linearGradient id="bg" x2="0" y2="1"><stop stop-color="#27201d"/><stop offset="1" stop-color="#0d0b0a"/></linearGradient><pattern id="stitch" width="100" height="100" patternUnits="userSpaceOnUse"><path d="M50 10l15 25 28 5-20 20 5 30-28-15-28 15 5-30-20-20 28-5z" fill="none" stroke="#b96c47" stroke-width="6"/></pattern></defs><rect width="1200" height="900" fill="url(#bg)"/><path d="M0 650Q250 560 490 650T950 630T1200 600V900H0Z" fill="#16100e"/><path d="M70 590h240v125H70z" fill="#5a3120"/><path d="M45 590l145-115 145 115" fill="#8d4d29"/><rect x="330" y="235" width="540" height="420" rx="18" fill="#e4d4ba" stroke="#d9a54c" stroke-width="10"/><rect x="365" y="270" width="470" height="350" fill="url(#stitch)"/><circle cx="600" cy="445" r="105" fill="none" stroke="#7d2948" stroke-width="14"/><circle cx="600" cy="445" r="55" fill="none" stroke="#d9a54c" stroke-width="10"/><text x="65" y="105" fill="#e5b866" font-family="Georgia" font-size="28" letter-spacing="7">KARNATAKA • HAND EMBROIDERY</text><text x="65" y="150" fill="#f6ead4" font-family="Georgia" font-size="50">Needlework • Thread & Memory</text></svg>
